<svg preserveAspectRatio="none" width="100%" height="100%" overflow="visible" style="display: block;" viewBox="0 0 16.0335 16.0335" fill="none" xmlns="http://www.w3.org/2000/svg">
<g id="Icon">
<path id="Vector" d="M14.6972 11.3035V13.3077C14.698 13.4937 14.6598 13.6779 14.5853 13.8484C14.5108 14.0189 14.4014 14.1719 14.2643 14.2977C14.1272 14.4234 13.9654 14.5192 13.7891 14.5788C13.6129 14.6384 13.4261 14.6606 13.2408 14.6438C11.1851 14.4204 9.2104 13.718 7.47545 12.5929C5.86129 11.5672 4.49277 10.1986 3.46708 8.58449C2.33804 6.84165 1.63541 4.85736 1.41612 2.79239C1.39943 2.60765 1.42139 2.42145 1.48059 2.24566C1.5398 2.06987 1.63496 1.90833 1.76002 1.77134C1.88508 1.63434 2.03729 1.52488 2.20697 1.44993C2.37665 1.37498 2.56007 1.33619 2.74557 1.33601H4.74975C5.07397 1.33282 5.38828 1.44763 5.63411 1.65904C5.87994 1.87045 6.0405 2.16404 6.08588 2.48508C6.17047 3.12646 6.32735 3.75622 6.55352 4.36233C6.6434 4.60145 6.66286 4.86132 6.60958 5.11115C6.55629 5.36098 6.43251 5.59031 6.25289 5.77194L5.40445 6.62038C6.35548 8.29291 7.7403 9.67773 9.41283 10.6288L10.2613 9.78032C10.4429 9.6007 10.6722 9.47692 10.9221 9.42363C11.1719 9.37035 11.4318 9.38981 11.6709 9.47969C12.277 9.70586 12.9067 9.86274 13.5481 9.94733C13.8727 9.99312 14.169 10.1566 14.3809 10.4066C14.5928 10.6567 14.7053 10.9759 14.6972 11.3035Z" stroke="var(--stroke-0, white)" stroke-width="1.33612" stroke-linecap="round" stroke-linejoin="round"/>
</g>
</svg>
